<mxfile host="app.diagrams.net" modified="2023-11-27T08:40:30.649Z" agent="Mozilla/5.0 (X11; Linux x86_64) AppleWebKit/537.36 (KHTML, like Gecko) Chrome/115.0.0.0 Safari/537.36" version="22.1.4" etag="yjOyGkSAOps1wY-bLjEb" type="github">
  <diagram name="第 1 页" id="DOjlATN1n29A25MyQme4">
    <mxGraphModel>
      <root>
        <mxCell id="0" />
        <mxCell id="1" parent="0" />
      </root>
    </mxGraphModel>
  </diagram>
</mxfile>
